<svg fill="#000000" version="1.1" id="Capa_1" xmlns="http://www.w3.org/2000/svg" xmlns:xlink="http://www.w3.org/1999/xlink" 
	 viewBox="0 0 227 227" xml:space="preserve">
<g>
	<path d="M0,219.5h69v-194H0V219.5z M35.928,200.647c-10.42,0-18.867-8.447-18.867-18.867c0-10.42,8.447-18.867,18.867-18.867
		c10.42,0,18.867,8.447,18.867,18.867C54.795,192.199,46.348,200.647,35.928,200.647z M15,44.5h39v101H15V44.5z"/>
	<rect x="23" y="54.5" width="24" height="15"/>
	<rect x="23" y="73.5" width="24" height="15"/>
	<path d="M158,25.5v194h69v-194H158z M173,44.5h39v101h-39V44.5z M194.177,200.647c-10.42,0-18.867-8.447-18.867-18.867
		c0-10.42,8.447-18.867,18.867-18.867c10.42,0,18.867,8.447,18.867,18.867C213.044,192.199,204.597,200.647,194.177,200.647z"/>
	<rect x="181" y="54.5" width="24" height="15"/>
	<rect x="181" y="73.5" width="24" height="15"/>
	<path d="M79,219.5h68V7.5H79V219.5z M114.318,200.647c-10.42,0-18.867-8.447-18.867-18.867c0-10.42,8.447-18.867,18.867-18.867
		c10.42,0,18.867,8.447,18.867,18.867C133.185,192.199,124.738,200.647,114.318,200.647z M93,26.5h40v119H93V26.5z"/>
	<rect x="102" y="36.5" width="23" height="15"/>
	<rect x="102" y="56.5" width="23" height="15"/>
	<rect x="102" y="76.5" width="23" height="15"/>
</g>
</svg>